<?xml version="1.0" standalone="no"?>
<!DOCTYPE svg PUBLIC "-//W3C//DTD SVG 20010904//EN"
 "http://www.w3.org/TR/2001/REC-SVG-20010904/DTD/svg10.dtd">
<svg version="1.0" xmlns="http://www.w3.org/2000/svg"
 width="1024.000000pt" height="1024.000000pt" viewBox="0 0 1024.000000 1024.000000"
 preserveAspectRatio="xMidYMid meet">

<g transform="translate(0.000000,1024.000000) scale(0.100000,-0.100000)"
fill="#000000" stroke="none">
<path d="M3395 8523 c-182 -25 -364 -159 -445 -329 -62 -128 -60 -83 -60
-1299 l0 -1110 90 90 90 90 0 1006 c0 958 1 1010 19 1068 39 125 112 209 229
264 l67 32 473 3 472 3 0 -233 c0 -206 3 -238 19 -273 24 -52 83 -107 147
-139 l52 -26 568 0 569 0 51 24 c67 31 128 86 153 139 18 38 21 64 22 275 l2
232 448 0 c421 0 451 -1 513 -20 98 -31 191 -106 237 -194 50 -94 48 -50 50
-1135 l2 -1019 94 -94 94 -93 -3 1130 -3 1130 -22 65 c-64 186 -203 325 -388
388 l-80 27 -1715 1 c-943 1 -1728 -1 -1745 -3z m2335 -263 l0 -80 -610 0
-610 0 0 80 0 80 610 0 610 0 0 -80z m0 -296 c0 -39 -5 -51 -34 -80 l-34 -34
-542 0 -542 0 -34 34 c-29 29 -34 41 -34 80 l0 46 610 0 610 0 0 -46z"/>
<path d="M6083 8164 c-2 -6 -3 -43 -1 -83 l3 -72 373 0 372 1 0 -854 0 -853
85 -82 85 -82 0 957 c0 1057 4 999 -64 1047 -31 22 -37 22 -440 27 -291 4
-410 2 -413 -6z"/>
<path d="M3313 8150 c-18 -10 -41 -37 -53 -59 -20 -40 -20 -54 -20 -1002 l0
-962 85 84 85 83 0 853 0 853 369 0 370 0 3 85 3 85 -405 0 c-384 0 -407 -1
-437 -20z"/>
<path d="M3604 7831 c-2 -2 -4 -35 -4 -73 l0 -68 270 0 270 0 0 75 0 74 -266
-2 c-146 -1 -267 -4 -270 -6z"/>
<path d="M6100 7763 l0 -73 265 0 265 0 0 70 0 69 -265 3 -265 3 0 -72z"/>
<path d="M3798 6891 l-33 -29 0 -1749 0 -1748 23 -47 c34 -70 93 -130 158
-163 l59 -30 1110 0 1110 0 56 26 c72 34 134 96 168 168 l26 56 3 1715 c2
1226 0 1726 -8 1753 -7 25 -22 45 -43 57 -31 19 -61 20 -1314 20 l-1283 0 -32
-29z m2512 -226 l0 -85 -1190 0 -1190 0 0 85 0 85 1190 0 1190 0 0 -85z m0
-1426 l0 -1179 -1190 0 -1190 0 0 1175 0 1175 1083 3 c595 1 1130 3 1190 4
l107 1 0 -1179z m-2 -1588 l-3 -229 -30 -43 c-61 -86 37 -79 -1158 -79 -1050
0 -1060 0 -1096 21 -20 11 -48 36 -61 56 -25 36 -25 40 -28 270 l-3 233 1191
0 1191 0 -3 -229z"/>
<path d="M4160 5215 l0 -735 254 0 c139 0 277 5 307 10 184 35 324 177 365
368 19 94 19 620 0 713 -30 141 -119 265 -230 319 -102 50 -172 60 -448 60
l-248 0 0 -735z m515 493 c27 -7 55 -26 87 -58 73 -76 78 -103 78 -426 0 -302
-6 -351 -53 -421 -49 -73 -99 -93 -241 -100 l-116 -6 0 511 0 511 53 4 c63 5
138 -1 192 -15z"/>
<path d="M5280 5221 l0 -731 125 0 125 0 0 274 0 274 153 4 c146 3 155 5 219
35 107 50 171 130 198 245 15 67 12 314 -5 377 -20 76 -62 139 -118 177 -90
62 -122 67 -424 72 l-273 3 0 -730z m511 483 c54 -32 60 -52 57 -211 -3 -125
-5 -145 -24 -170 -34 -45 -69 -57 -186 -61 l-108 -4 0 237 0 238 113 -5 c90
-3 121 -8 148 -24z"/>
<path d="M4910 3605 l0 -75 210 0 210 0 0 75 0 75 -210 0 -210 0 0 -75z"/>
<path d="M4140 3600 l0 -70 280 0 280 0 0 70 0 70 -280 0 -280 0 0 -70z"/>
<path d="M5540 3600 l0 -70 278 2 277 3 0 67 0 68 -277 0 -278 0 0 -70z"/>
<path d="M3418 5841 c-3 -9 -172 -165 -443 -411 -88 -80 -185 -168 -215 -196
-30 -29 -66 -61 -79 -71 l-24 -20 49 -45 c27 -24 162 -147 299 -273 138 -125
289 -267 338 -314 l87 -86 0 140 -1 140 -67 59 c-136 119 -410 371 -410 376 0
6 209 198 361 330 l117 102 0 139 c0 127 -2 155 -12 130z"/>
<path d="M6810 5714 l0 -140 235 -213 c129 -117 235 -217 235 -221 0 -8 -416
-394 -451 -418 -17 -12 -19 -28 -19 -149 l0 -135 123 114 c67 63 237 219 377
347 140 128 256 236 258 240 1 4 -66 70 -150 146 -338 310 -427 392 -515 479
l-93 91 0 -141z"/>
<path d="M2892 3330 l3 -1165 26 -67 c79 -203 236 -341 434 -383 104 -22 3415
-22 3518 0 206 43 380 200 450 405 l22 65 3 1153 c1 633 0 1152 -3 1152 -3 0
-45 -39 -94 -87 l-89 -88 -1 -1039 c-1 -1145 2 -1097 -63 -1198 -41 -65 -99
-115 -177 -151 l-66 -32 -1735 0 -1735 0 -58 23 c-71 29 -163 112 -201 182
-58 106 -56 67 -56 1185 l0 1030 -90 90 -90 90 2 -1165z"/>
<path d="M6913 4068 l-83 -83 0 -693 0 -692 -1710 0 -1710 0 0 694 0 694 -85
77 -85 77 2 -978 3 -979 24 -53 c30 -66 113 -144 177 -166 43 -14 207 -16
1683 -16 l1636 0 50 24 c59 27 128 99 158 164 22 47 22 52 25 802 1 415 1 857
0 983 l-3 227 -82 -82z m-83 -1742 c0 -90 -3 -107 -23 -136 -49 -74 -18 -70
-676 -77 l-591 -6 0 89 c0 57 -4 94 -12 102 -17 17 -799 17 -816 0 -7 -7 -12
-43 -12 -93 l0 -82 -212 -6 c-116 -4 -376 -7 -577 -7 -360 0 -368 0 -411 23
-25 12 -55 37 -67 56 -20 30 -23 47 -23 137 l0 104 1710 0 1710 0 0 -104z"/>
</g>
</svg>
